<svg id="Layer_1" data-name="Layer 1" xmlns="http://www.w3.org/2000/svg" viewBox="0 0 1334 750">
  <defs>
    <style>
      .cls-1 {
        fill: #fff;
      }
    </style>
  </defs>
  <title>mask</title>
  <rect class="cls-1" width="95.29" height="93.75"/>
  <rect x="190.57" width="95.29" height="93.75"/>
  <rect x="381.14" width="95.29" height="93.75"/>
  <rect x="571.71" width="95.29" height="93.75"/>
  <rect x="762.29" width="95.29" height="93.75"/>
  <rect x="952.86" width="95.29" height="93.75"/>
  <rect x="1143.43" width="95.29" height="93.75"/>
  <rect x="95.29" y="93.75" width="95.29" height="93.75"/>
  <rect x="285.86" y="93.75" width="95.29" height="93.75"/>
  <rect x="476.43" y="93.75" width="95.29" height="93.75"/>
  <rect x="667" y="93.75" width="95.29" height="93.75"/>
  <rect x="857.57" y="93.75" width="95.29" height="93.75"/>
  <rect x="1048.14" y="93.75" width="95.29" height="93.75"/>
  <rect x="1238.71" y="93.75" width="95.29" height="93.75"/>
  <rect y="187.5" width="95.29" height="93.75"/>
  <rect x="190.57" y="187.5" width="95.29" height="93.75"/>
  <rect x="381.14" y="187.5" width="95.29" height="93.75"/>
  <rect x="571.71" y="187.5" width="95.29" height="93.75"/>
  <rect x="762.29" y="187.5" width="95.29" height="93.75"/>
  <rect x="952.86" y="187.5" width="95.29" height="93.75"/>
  <rect x="1143.43" y="187.5" width="95.29" height="93.75"/>
  <rect x="95.29" y="281.25" width="95.29" height="93.75"/>
  <rect x="285.86" y="281.25" width="95.29" height="93.75"/>
  <rect x="476.43" y="281.25" width="95.29" height="93.75"/>
  <rect x="667" y="281.25" width="95.29" height="93.75"/>
  <rect x="857.57" y="281.25" width="95.29" height="93.75"/>
  <rect x="1048.14" y="281.25" width="95.29" height="93.75"/>
  <rect x="1238.71" y="281.25" width="95.29" height="93.75"/>
  <rect y="375" width="95.29" height="93.75"/>
  <rect x="190.57" y="375" width="95.29" height="93.75"/>
  <rect x="381.14" y="375" width="95.29" height="93.75"/>
  <rect x="571.71" y="375" width="95.29" height="93.75"/>
  <rect x="762.29" y="375" width="95.29" height="93.75"/>
  <rect x="952.86" y="375" width="95.29" height="93.75"/>
  <rect x="1143.43" y="375" width="95.29" height="93.75"/>
  <rect x="95.29" y="468.75" width="95.29" height="93.75"/>
  <rect x="285.86" y="468.75" width="95.29" height="93.75"/>
  <rect x="476.43" y="468.75" width="95.29" height="93.75"/>
  <rect x="667" y="468.75" width="95.29" height="93.75"/>
  <rect x="857.57" y="468.75" width="95.29" height="93.75"/>
  <rect x="1048.14" y="468.75" width="95.29" height="93.75"/>
  <rect x="1238.71" y="468.75" width="95.29" height="93.75"/>
  <rect y="562.5" width="95.29" height="93.75"/>
  <rect x="190.57" y="562.5" width="95.29" height="93.75"/>
  <rect x="381.14" y="562.5" width="95.29" height="93.75"/>
  <rect x="571.71" y="562.5" width="95.29" height="93.75"/>
  <rect x="762.29" y="562.5" width="95.29" height="93.75"/>
  <rect x="952.86" y="562.5" width="95.29" height="93.75"/>
  <rect x="1143.43" y="562.5" width="95.29" height="93.75"/>
  <rect x="95.29" y="656.25" width="95.29" height="93.75"/>
  <rect x="285.86" y="656.25" width="95.29" height="93.75"/>
  <rect x="476.43" y="656.25" width="95.29" height="93.75"/>
  <rect x="667" y="656.25" width="95.29" height="93.75"/>
  <rect x="857.57" y="656.25" width="95.29" height="93.75"/>
  <rect x="1048.14" y="656.25" width="95.29" height="93.75"/>
  <rect x="1238.71" y="656.25" width="95.29" height="93.75"/>
</svg>
